<?xml version="1.0" encoding="UTF-8" standalone="no"?>
<!-- Created with Inkscape (http://www.inkscape.org/) -->

<svg
   xmlns:dc="http://purl.org/dc/elements/1.1/"
   xmlns:cc="http://creativecommons.org/ns#"
   xmlns:rdf="http://www.w3.org/1999/02/22-rdf-syntax-ns#"
   xmlns:svg="http://www.w3.org/2000/svg"
   xmlns="http://www.w3.org/2000/svg"
   xmlns:sodipodi="http://sodipodi.sourceforge.net/DTD/sodipodi-0.dtd"
   xmlns:inkscape="http://www.inkscape.org/namespaces/inkscape"
   width="64px"
   height="64px"
   id="svg3186"
   version="1.1"
   inkscape:version="0.48.4 r9939"
   sodipodi:docname="navigation_viger.svg">
  <defs
     id="defs3188" />
  <sodipodi:namedview
     id="base"
     pagecolor="#ffffff"
     bordercolor="#666666"
     borderopacity="1.0"
     inkscape:pageopacity="0.0"
     inkscape:pageshadow="2"
     inkscape:zoom="5.5"
     inkscape:cx="28.58209"
     inkscape:cy="32.927626"
     inkscape:current-layer="layer1"
     showgrid="true"
     inkscape:document-units="px"
     inkscape:grid-bbox="true"
     inkscape:window-width="836"
     inkscape:window-height="648"
     inkscape:window-x="150"
     inkscape:window-y="150"
     inkscape:window-maximized="0" />
  <metadata
     id="metadata3191">
    <rdf:RDF>
      <cc:Work
         rdf:about="">
        <dc:format>image/svg+xml</dc:format>
        <dc:type
           rdf:resource="http://purl.org/dc/dcmitype/StillImage" />
        <dc:title></dc:title>
      </cc:Work>
    </rdf:RDF>
  </metadata>
  <g
     id="layer1"
     inkscape:label="Layer 1"
     inkscape:groupmode="layer">
    <g
       id="g6921"
       transform="matrix(0.19313182,0,0,0.19313182,118.66343,90.348349)">
      <rect
         y="-451.90787"
         x="-602.95319"
         height="297.14285"
         width="308.57144"
         id="rect2985-4-2-6-4-0-99-8-8-0-6"
         style="fill:#ffb300;fill-opacity:1;stroke:#000000;stroke-width:20;stroke-linejoin:round;stroke-miterlimit:4;stroke-opacity:1;stroke-dasharray:none" />
      <path
         d="m 225,650.57648 c 0,12.4264 -10.07359,22.5 -22.5,22.5 -12.42641,0 -22.5,-10.0736 -22.5,-22.5 0,-12.42641 10.07359,-22.5 22.5,-22.5 12.42641,0 22.5,10.07359 22.5,22.5 z"
         sodipodi:ry="22.5"
         sodipodi:rx="22.5"
         sodipodi:cy="650.57648"
         sodipodi:cx="202.5"
         id="path3943-7-4-0-2-8"
         style="fill:#000000;fill-opacity:1;stroke:none"
         sodipodi:type="arc"
         transform="matrix(0.90476186,0,0,0.90476186,-728.1675,-860.16747)" />
      <path
         d="m 225,650.57648 c 0,12.4264 -10.07359,22.5 -22.5,22.5 -12.42641,0 -22.5,-10.0736 -22.5,-22.5 0,-12.42641 10.07359,-22.5 22.5,-22.5 12.42641,0 22.5,10.07359 22.5,22.5 z"
         sodipodi:ry="22.5"
         sodipodi:rx="22.5"
         sodipodi:cy="650.57648"
         sodipodi:cx="202.5"
         id="path3943-7-4-0-2-1"
         style="fill:#000000;fill-opacity:1;stroke:none"
         sodipodi:type="arc"
         transform="matrix(0.90476186,0,0,0.90476186,-728.1675,-923.73894)" />
      <path
         d="m 225,650.57648 c 0,12.4264 -10.07359,22.5 -22.5,22.5 -12.42641,0 -22.5,-10.0736 -22.5,-22.5 0,-12.42641 10.07359,-22.5 22.5,-22.5 12.42641,0 22.5,10.07359 22.5,22.5 z"
         sodipodi:ry="22.5"
         sodipodi:rx="22.5"
         sodipodi:cy="650.57648"
         sodipodi:cx="202.5"
         id="path3943-7-4-0-2-9"
         style="fill:#000000;fill-opacity:1;stroke:none"
         sodipodi:type="arc"
         transform="matrix(0.90476186,0,0,0.90476186,-728.1675,-987.31035)" />
      <path
         d="m 225,650.57648 c 0,12.4264 -10.07359,22.5 -22.5,22.5 -12.42641,0 -22.5,-10.0736 -22.5,-22.5 0,-12.42641 10.07359,-22.5 22.5,-22.5 12.42641,0 22.5,10.07359 22.5,22.5 z"
         sodipodi:ry="22.5"
         sodipodi:rx="22.5"
         sodipodi:cy="650.57648"
         sodipodi:cx="202.5"
         id="path3943-7-4-0-2-5"
         style="fill:#000000;fill-opacity:1;stroke:none"
         sodipodi:type="arc"
         transform="matrix(0.90476186,0,0,0.90476186,-662.2626,-987.31035)" />
      <path
         d="m 225,650.57648 c 0,12.4264 -10.07359,22.5 -22.5,22.5 -12.42641,0 -22.5,-10.0736 -22.5,-22.5 0,-12.42641 10.07359,-22.5 22.5,-22.5 12.42641,0 22.5,10.07359 22.5,22.5 z"
         sodipodi:ry="22.5"
         sodipodi:rx="22.5"
         sodipodi:cy="650.57648"
         sodipodi:cx="202.5"
         id="path3943-7-4-0-2-58"
         style="fill:#000000;fill-opacity:1;stroke:none"
         sodipodi:type="arc"
         transform="matrix(0.90476186,0,0,0.90476186,-728.1675,-796.59607)" />
      <path
         d="m 225,650.57648 c 0,12.4264 -10.07359,22.5 -22.5,22.5 -12.42641,0 -22.5,-10.0736 -22.5,-22.5 0,-12.42641 10.07359,-22.5 22.5,-22.5 12.42641,0 22.5,10.07359 22.5,22.5 z"
         sodipodi:ry="22.5"
         sodipodi:rx="22.5"
         sodipodi:cy="650.57648"
         sodipodi:cx="202.5"
         id="path3943-7-4-0-2-6"
         style="fill:#000000;fill-opacity:1;stroke:none"
         sodipodi:type="arc"
         transform="matrix(0.90476186,0,0,0.90476186,-598.9293,-987.31035)" />
      <path
         d="m 225,650.57648 c 0,12.4264 -10.07359,22.5 -22.5,22.5 -12.42641,0 -22.5,-10.0736 -22.5,-22.5 0,-12.42641 10.07359,-22.5 22.5,-22.5 12.42641,0 22.5,10.07359 22.5,22.5 z"
         sodipodi:ry="22.5"
         sodipodi:rx="22.5"
         sodipodi:cy="650.57648"
         sodipodi:cx="202.5"
         id="path3943-7-4-0-2-29"
         style="fill:#000000;fill-opacity:1;stroke:none"
         sodipodi:type="arc"
         transform="matrix(0.90476186,0,0,0.90476186,-535.596,-987.31035)" />
      <path
         d="m 225,650.57648 c 0,12.4264 -10.07359,22.5 -22.5,22.5 -12.42641,0 -22.5,-10.0736 -22.5,-22.5 0,-12.42641 10.07359,-22.5 22.5,-22.5 12.42641,0 22.5,10.07359 22.5,22.5 z"
         sodipodi:ry="22.5"
         sodipodi:rx="22.5"
         sodipodi:cy="650.57648"
         sodipodi:cx="202.5"
         id="path3943-7-4-0-2-8-4"
         style="fill:#000000;fill-opacity:1;stroke:none"
         sodipodi:type="arc"
         transform="matrix(0.90476186,0,0,0.90476186,-662.2626,-860.38176)" />
      <path
         d="m 225,650.57648 c 0,12.4264 -10.07359,22.5 -22.5,22.5 -12.42641,0 -22.5,-10.0736 -22.5,-22.5 0,-12.42641 10.07359,-22.5 22.5,-22.5 12.42641,0 22.5,10.07359 22.5,22.5 z"
         sodipodi:ry="22.5"
         sodipodi:rx="22.5"
         sodipodi:cy="650.57648"
         sodipodi:cx="202.5"
         id="path3943-7-4-0-2-1-1"
         style="fill:#000000;fill-opacity:1;stroke:none"
         sodipodi:type="arc"
         transform="matrix(0.90476186,0,0,0.90476186,-662.2626,-923.95323)" />
      <path
         d="m 225,650.57648 c 0,12.4264 -10.07359,22.5 -22.5,22.5 -12.42641,0 -22.5,-10.0736 -22.5,-22.5 0,-12.42641 10.07359,-22.5 22.5,-22.5 12.42641,0 22.5,10.07359 22.5,22.5 z"
         sodipodi:ry="22.5"
         sodipodi:rx="22.5"
         sodipodi:cy="650.57648"
         sodipodi:cx="202.5"
         id="path3943-7-4-0-2-8-4-9"
         style="fill:#000000;fill-opacity:1;stroke:none"
         sodipodi:type="arc"
         transform="matrix(0.90476186,0,0,0.90476186,-598.9293,-859.81033)" />
      <path
         d="m 225,650.57648 c 0,12.4264 -10.07359,22.5 -22.5,22.5 -12.42641,0 -22.5,-10.0736 -22.5,-22.5 0,-12.42641 10.07359,-22.5 22.5,-22.5 12.42641,0 22.5,10.07359 22.5,22.5 z"
         sodipodi:ry="22.5"
         sodipodi:rx="22.5"
         sodipodi:cy="650.57648"
         sodipodi:cx="202.5"
         id="path3943-7-4-0-2-1-1-6"
         style="fill:#000000;fill-opacity:1;stroke:none"
         sodipodi:type="arc"
         transform="matrix(0.90476186,0,0,0.90476186,-598.9293,-923.3818)" />
      <path
         d="m 225,650.57648 c 0,12.4264 -10.07359,22.5 -22.5,22.5 -12.42641,0 -22.5,-10.0736 -22.5,-22.5 0,-12.42641 10.07359,-22.5 22.5,-22.5 12.42641,0 22.5,10.07359 22.5,22.5 z"
         sodipodi:ry="22.5"
         sodipodi:rx="22.5"
         sodipodi:cy="650.57648"
         sodipodi:cx="202.5"
         id="path3943-7-4-0-2-8-4-98"
         style="fill:#000000;fill-opacity:1;stroke:none"
         sodipodi:type="arc"
         transform="matrix(0.90476186,0,0,0.90476186,-662.2626,-797.31035)" />
      <rect
         y="-400.55286"
         x="-545.74109"
         height="65.861443"
         width="1.5757217"
         id="rect6573"
         style="fill:#000000;fill-opacity:1;stroke:#000000;stroke-width:5.508564;stroke-linecap:round;stroke-linejoin:round;stroke-miterlimit:4;stroke-opacity:1;stroke-dasharray:none" />
      <rect
         y="-337.38156"
         x="-479.52203"
         height="135.94745"
         width="0.94744271"
         id="rect6573-2"
         style="fill:#000000;fill-opacity:1;stroke:#000000;stroke-width:6.13684273;stroke-linecap:round;stroke-linejoin:round;stroke-miterlimit:4;stroke-opacity:1;stroke-dasharray:none" />
      <rect
         y="-398.82782"
         x="-416.20648"
         height="129.55421"
         width="0.98278034"
         id="rect6573-2-5"
         style="fill:#000000;fill-opacity:1;stroke:#000000;stroke-width:6.10150528;stroke-linecap:round;stroke-linejoin:round;stroke-miterlimit:4;stroke-opacity:1;stroke-dasharray:none" />
      <path
         d="m 225,650.57648 c 0,12.4264 -10.07359,22.5 -22.5,22.5 -12.42641,0 -22.5,-10.0736 -22.5,-22.5 0,-12.42641 10.07359,-22.5 22.5,-22.5 12.42641,0 22.5,10.07359 22.5,22.5 z"
         sodipodi:ry="22.5"
         sodipodi:rx="22.5"
         sodipodi:cy="650.57648"
         sodipodi:cx="202.5"
         id="path3943-7-4-0-2-29-5"
         style="fill:#000000;fill-opacity:1;stroke:none"
         sodipodi:type="arc"
         transform="matrix(0.90476186,0,0,0.90476186,-535.596,-923.73892)" />
      <rect
         y="-404.42218"
         x="-353.11029"
         height="74.314369"
         width="1.4572202"
         id="rect6573-2-5-4"
         style="fill:#000000;fill-opacity:1;stroke:#000000;stroke-width:5.62706566;stroke-linecap:round;stroke-linejoin:round;stroke-miterlimit:4;stroke-opacity:1;stroke-dasharray:none" />
      <rect
         y="-276.99713"
         x="-545.74109"
         height="65.861443"
         width="1.5757217"
         id="rect6573-5"
         style="fill:#000000;fill-opacity:1;stroke:#000000;stroke-width:5.508564;stroke-linecap:round;stroke-linejoin:round;stroke-miterlimit:4;stroke-opacity:1;stroke-dasharray:none" />
    </g>
  </g>
</svg>
